<svg width="24" height="24" viewBox="0 0 24 24" fill="none" xmlns="http://www.w3.org/2000/svg">
<path d="M5.09823 4.60156C8.77614 1.53004 14.1469 1.34912 18.0825 4.07036L17.921 2.57695C17.8545 2.04806 18.2428 1.56754 18.7928 1.50642C19.3413 1.44549 19.8386 1.82511 19.907 2.35341L20.4066 6.47363C20.446 6.7587 20.3522 7.04647 20.1486 7.2571L20.1369 7.26913L20.0728 7.32266L20.0719 7.32343C19.8819 7.48085 19.638 7.56242 19.3888 7.55348L15.8812 8.13459L15.8416 8.13162C15.2921 8.09049 14.8771 7.62746 14.914 7.09671C14.9491 6.59146 15.381 6.20579 15.8958 6.20182L17.0425 5.72141C13.4288 3.13243 8.34188 3.66433 5.45502 7.00776C2.45614 10.4809 2.95963 15.6811 6.58963 18.6213C9.81235 21.2316 14.4899 21.2145 17.6339 18.588L17.6385 18.5844C19.6486 16.9669 20.7051 14.4927 20.4664 11.957C20.4124 11.4264 20.8133 10.9545 21.3651 10.9068C21.9142 10.8592 22.4017 11.2502 22.4564 11.7797L22.4566 11.7817C22.7611 14.9413 21.4506 18.031 18.9455 20.0551C14.5672 23.7098 7.92155 23.2085 4.09973 18.9443C0.27733 14.6796 0.719921 8.25801 5.09823 4.60156Z" fill="#B5FF00"/>
<path d="M10.6526 8.51328C10.4867 7.82891 9.51333 7.82891 9.34738 8.51328L8.89076 10.3964C8.83151 10.6407 8.64073 10.8315 8.39639 10.8908L6.51329 11.3474C5.82891 11.5133 5.82891 12.4867 6.51328 12.6526L8.39639 13.1092C8.64073 13.1685 8.83151 13.3593 8.89076 13.6036L9.34738 15.4867C9.51333 16.1711 10.4867 16.1711 10.6526 15.4867L11.1092 13.6036C11.1685 13.3593 11.3593 13.1685 11.6036 13.1092L13.4867 12.6526C14.1711 12.4867 14.1711 11.5133 13.4867 11.3474L11.6036 10.8908C11.3593 10.8315 11.1685 10.6407 11.1092 10.3964L10.6526 8.51328Z" fill="#B5FF00"/>
<path d="M13 17C13 17.5523 13.4477 18 14 18C14.5523 18 15 17.5523 15 17C15 16.4477 14.5523 16 14 16C13.4477 16 13 16.4477 13 17Z" fill="#B5FF00"/>
<path d="M17 13C16.4477 13 16 12.5523 16 12C16 11.4477 16.4477 11 17 11C17.5523 11 18 11.4477 18 12C18 12.5523 17.5523 13 17 13Z" fill="#B5FF00"/>
</svg>
